<?xml version="1.0" encoding="UTF-8" standalone="no"?>
<!-- Created with Inkscape (http://www.inkscape.org/) -->

<svg
   width="210mm"
   height="297mm"
   viewBox="0 0 210 297"
   version="1.1"
   id="svg1"
   xmlns="http://www.w3.org/2000/svg"
   xmlns:svg="http://www.w3.org/2000/svg">
  <defs
     id="defs1" />
  <g
     id="layer1">
    <path
       style="fill:#eaf1f2;stroke-width:0.264583;fill-opacity:1"
       id="path2"
       d="m 166.79932,221.70061 c -4.32724,3.37383 -56.06786,-30.44197 -61.55191,-30.26049 -5.489976,0.18168 -54.94974,37.34274 -59.50055,34.26654 -4.545896,-3.07288 11.626113,-62.73079 9.758847,-67.89035 C 53.636422,152.65117 3.010255,117.09554 4.5296155,111.81686 6.0473354,106.54388 67.782809,103.48907 72.112825,100.1188 76.447522,96.744892 94.618594,37.609251 100.10842,37.423048 c 5.4839,-0.186002 27.46651,57.583933 32.00987,60.660554 4.54828,3.079948 66.40479,2.087748 68.27832,7.251338 1.87152,5.15802 -46.27795,43.91662 -47.80001,49.18834 -1.52371,5.27742 18.53464,63.79985 14.20272,67.17733 z" />
  </g>
  <text
     xml:space="preserve"
     style="font-style:normal;font-variant:normal;font-weight:bold;font-stretch:normal;font-size:50.8px;font-family:STIXSizeFourSym;-inkscape-font-specification:'STIXSizeFourSym Bold';text-align:start;writing-mode:lr-tb;direction:ltr;text-anchor:start;fill:#212d61;fill-opacity:1;stroke-width:0.289272"
     x="61.506927"
     y="153.97125"
     id="text2"
     transform="scale(0.99328431,1.0067611)"><tspan
       style="font-style:normal;font-variant:normal;font-weight:bold;font-stretch:normal;font-size:50.8px;font-family:STIXSizeFourSym;-inkscape-font-specification:'STIXSizeFourSym Bold';fill:#212d61;fill-opacity:1;stroke-width:0.289272"
       x="61.506927"
       y="153.97125"
       id="tspan3">J.N</tspan></text>
</svg>
