<?xml version="1.0" encoding="UTF-8" standalone="no"?>
<!-- Created with Inkscape (http://www.inkscape.org/) -->

<svg
   width="210mm"
   height="297mm"
   viewBox="0 0 210 297"
   version="1.1"
   id="svg1"
   xmlns="http://www.w3.org/2000/svg"
   xmlns:svg="http://www.w3.org/2000/svg">
  <defs
     id="defs1" />
  <path
     style="fill:#212d61;stroke-width:0.207231"
     id="path2"
     d="m 121.53591,160.20642 c -3.12458,0.9739 -27.037332,-26.61712 -30.137616,-27.6658 -3.100285,-1.04869 -38.852034,6.36053 -40.743815,3.68982 -1.891781,-2.67071 16.959389,-33.93918 16.998708,-37.211786 0.03932,-3.272607 -18.05516,-34.984968 -16.09976,-37.609452 1.955401,-2.624485 37.518816,5.641554 40.643401,4.667658 3.124585,-0.973897 27.693332,-27.982428 30.793612,-26.933742 3.10029,1.048686 6.22852,37.42585 8.1203,40.096557 1.89178,2.670707 35.17058,17.690877 35.13126,20.963485 -0.0393,3.27261 -33.66938,17.48889 -35.62478,20.11338 -1.9554,2.62448 -5.95672,38.91599 -9.08131,39.88988 z"
     transform="matrix(1.2864317,0,0,1.2671518,-28.67633,25.853729)" />
</svg>
